<?xml version="1.0" encoding="utf-8"?>
<!-- Generator: Adobe Illustrator 25.0.0, SVG Export Plug-In . SVG Version: 6.00 Build 0)  -->
<svg version="1.1" id="Layer_1" xmlns="http://www.w3.org/2000/svg" xmlns:xlink="http://www.w3.org/1999/xlink" x="0px" y="0px"
	 viewBox="0 0 675 548.6" style="enable-background:new 0 0 675 548.6;" xml:space="preserve">
<style type="text/css">
	.st0{fill:#E80CD0;stroke:#000000;stroke-miterlimit:10;}
	.st1{fill:#AFAA23;stroke:#000000;stroke-miterlimit:10;}
	.st2{fill:#E19B35;stroke:#000000;stroke-miterlimit:10;}
	.st3{fill:#717878;stroke:#000000;stroke-miterlimit:10;}
	.st4{fill:#498C40;stroke:#000000;stroke-miterlimit:10;}
	.st5{fill:#F2C53D;stroke:#000000;stroke-miterlimit:10;}
	.st6{fill:#FCEE9E;stroke:#000000;stroke-miterlimit:10;}
	.st7{fill:#4A77F3;stroke:#000000;stroke-miterlimit:10;}
	.st8{fill:#016E45;stroke:#000000;stroke-miterlimit:10;}
	.st9{fill:none;}
	.st10{fill:#C3D6CF;stroke:#000000;stroke-miterlimit:10;}
	.st11{display:none;}
	.st12{display:inline;}
	.st13{fill:#01925C;}
	.st14{font-family:'Lato-Regular';}
	.st15{font-size:22px;}
	.st16{display:inline;fill:none;}
	.st17{fill:#E80CD0;}
	.st18{fill:#F5D164;}
	.st19{display:inline;fill:#5EB6EE;stroke:#000000;stroke-miterlimit:10;}
	.st20{display:inline;fill:#C3D6CF;stroke:#000000;stroke-miterlimit:10;}
</style>
<script  src="./_js/svgUtility.js" type="text/javascript"></script>
<g>
	<polygon class="st0" points="-1411.7,490.6 -1436.4,447.8 -1411.7,405 -1362.2,405 -1337.5,447.8 -1362.2,490.6 	"/>
</g>
<g id="Agriculture_Group">
	<polygon class="st1" points="-2077.7,791.8 -2102.4,749 -2077.7,706.2 -2028.3,706.2 -2003.6,749 -2028.3,791.8 	"/>
	<polygon class="st1" points="-2003.7,835.1 -2028.4,792.3 -2003.7,749.5 -1954.3,749.5 -1929.6,792.3 -1954.3,835.1 	"/>
	<polygon class="st1" points="-2003.7,749.5 -2028.4,706.7 -2003.7,663.9 -1954.3,663.9 -1929.6,706.7 -1954.3,749.5 	"/>
	<polygon class="st1" points="-1929.7,791.8 -1954.4,749 -1929.7,706.2 -1880.3,706.2 -1855.6,749 -1880.3,791.8 	"/>
	<polygon class="st1" points="-1929.7,877.9 -1954.4,835.1 -1929.7,792.3 -1880.3,792.3 -1855.6,835.1 -1880.3,877.9 	"/>
	<polygon class="st1" points="-1856.2,921.2 -1880.9,878.4 -1856.2,835.6 -1806.8,835.6 -1782.1,878.4 -1806.8,921.2 	"/>
	<polygon class="st1" points="-1856.2,835.6 -1880.9,792.8 -1856.2,750 -1806.8,750 -1782.1,792.8 -1806.8,835.6 	"/>
	<polygon class="st1" points="-1782.2,877.9 -1806.9,835.1 -1782.2,792.3 -1732.8,792.3 -1708.1,835.1 -1732.8,877.9 	"/>
	<polygon class="st1" points="-1782.2,791.8 -1806.9,749 -1782.2,706.2 -1732.8,706.2 -1708.1,749 -1732.8,791.8 	"/>
	<polygon class="st1" points="-2151.7,920.7 -2176.4,877.9 -2151.7,835.1 -2102.3,835.1 -2077.6,877.9 -2102.3,920.7 	"/>
	<polygon class="st1" points="-2078.2,964 -2102.9,921.2 -2078.2,878.4 -2028.8,878.4 -2004.1,921.2 -2028.8,964 	"/>
	<polygon class="st1" points="-2077.7,878.4 -2102.4,835.6 -2077.7,792.8 -2028.3,792.8 -2003.6,835.6 -2028.3,878.4 	"/>
	<polygon class="st1" points="-2004.2,920.7 -2028.9,877.9 -2004.2,835.1 -1954.8,835.1 -1930.1,877.9 -1954.8,920.7 	"/>
	<polygon class="st1" points="-1930.2,964.5 -1954.9,921.7 -1930.2,878.9 -1880.8,878.9 -1856.1,921.7 -1880.8,964.5 	"/>
</g>
<g id="Copper_Group">
	<polygon class="st2" points="-1856.2,491.1 -1880.9,448.3 -1856.2,405.5 -1806.8,405.5 -1782.1,448.3 -1806.8,491.1 	"/>
	<polygon class="st2" points="-1782.2,533.5 -1806.9,490.6 -1782.2,447.8 -1732.8,447.8 -1708,490.6 -1732.8,533.5 	"/>
	<polygon class="st2" points="-1782.2,447.3 -1806.9,404.5 -1782.2,361.7 -1732.8,361.7 -1708,404.5 -1732.8,447.3 	"/>
	<polygon class="st2" points="-2077.7,363.7 -2102.4,320.9 -2077.7,278.1 -2028.2,278.1 -2003.5,320.9 -2028.2,363.7 	"/>
	<polygon class="st2" points="-2077.7,277.6 -2102.4,234.8 -2077.7,192 -2028.2,192 -2003.5,234.8 -2028.2,277.6 	"/>
	<polygon class="st2" points="-2003.7,320.9 -2028.4,278.1 -2003.7,235.3 -1954.3,235.3 -1929.6,278.1 -1954.3,320.9 	"/>
	<polygon class="st2" points="-2003.7,235.3 -2028.4,192.5 -2003.7,149.7 -1954.3,149.7 -1929.6,192.5 -1954.3,235.3 	"/>
	<polygon class="st2" points="-1929.7,277.6 -1954.4,234.8 -1929.7,192 -1880.2,192 -1855.5,234.8 -1880.2,277.6 	"/>
</g>
<g id="Ore_Group">
	<polygon class="st3" points="-2152.2,663.4 -2176.9,620.6 -2152.2,577.8 -2102.8,577.8 -2078.1,620.6 -2102.8,663.4 	"/>
	<polygon class="st3" points="-2078.2,619.6 -2102.9,576.8 -2078.2,534 -2028.8,534 -2004.1,576.8 -2028.8,619.6 	"/>
	<polygon class="st3" points="-2152.3,577.5 -2177,534.7 -2152.3,491.9 -2102.8,491.9 -2078.1,534.7 -2102.8,577.5 	"/>
	<polygon class="st3" points="-2152.3,491.9 -2177,449.1 -2152.3,406.3 -2102.8,406.3 -2078.1,449.1 -2102.8,491.9 	"/>
	<polygon class="st3" points="-2078.2,534.2 -2102.9,491.4 -2078.2,448.6 -2028.8,448.6 -2004.1,491.4 -2028.8,534.2 	"/>
</g>
<g id="Grass_Group">
	<polygon class="st4" points="-1338.2,361.7 -1362.9,318.9 -1338.2,276.1 -1288.8,276.1 -1264.1,318.9 -1288.8,361.7 	"/>
	<polygon class="st4" points="-1559.7,404.5 -1584.4,361.7 -1559.7,318.9 -1510.2,318.9 -1485.5,361.7 -1510.2,404.5 	"/>
	<polygon class="st4" points="-1485.7,447.8 -1510.4,405 -1485.7,362.2 -1436.3,362.2 -1411.6,405 -1436.3,447.8 	"/>
	<polygon class="st4" points="-1485.7,362.2 -1510.4,319.4 -1485.7,276.6 -1436.3,276.6 -1411.6,319.4 -1436.3,362.2 	"/>
	<polygon class="st4" points="-1411.7,404.5 -1436.4,361.7 -1411.7,318.9 -1362.2,318.9 -1337.5,361.7 -1362.2,404.5 	"/>
	<polygon class="st4" points="-1338.2,534 -1362.9,491.1 -1338.2,448.3 -1288.8,448.3 -1264.1,491.1 -1288.8,534 	"/>
	<polygon class="st4" points="-1338.2,448.3 -1362.9,405.5 -1338.2,362.7 -1288.8,362.7 -1264.1,405.5 -1288.8,448.3 	"/>
	<polygon class="st4" points="-1264.2,490.6 -1288.9,447.8 -1264.2,405 -1214.8,405 -1190,447.8 -1214.8,490.6 	"/>
	<polygon class="st4" points="-1190.2,622.1 -1214.9,579.3 -1190.2,536.5 -1140.8,536.5 -1116.1,579.3 -1140.8,622.1 	"/>
	<polygon class="st4" points="-1264.2,404.5 -1288.9,361.7 -1264.2,318.9 -1214.8,318.9 -1190,361.7 -1214.8,404.5 	"/>
	<polygon class="st4" points="-1633.7,533.5 -1658.4,490.6 -1633.7,447.8 -1584.2,447.8 -1559.5,490.6 -1584.2,533.5 	"/>
	<polygon class="st4" points="-1559.7,491.1 -1584.4,448.3 -1559.7,405.5 -1510.3,405.5 -1485.6,448.3 -1510.3,491.1 	"/>
	<polygon class="st4" points="-1708.2,662.9 -1732.9,620.1 -1708.2,577.3 -1658.8,577.3 -1634.1,620.1 -1658.8,662.9 	"/>
	<polygon class="st4" points="-1633.7,447.3 -1658.4,404.5 -1633.7,361.7 -1584.2,361.7 -1559.5,404.5 -1584.2,447.3 	"/>
	<polygon class="st4" points="-1634.2,705.7 -1658.9,662.9 -1634.2,620.1 -1584.8,620.1 -1560,662.9 -1584.8,705.7 	"/>
	<polygon class="st4" points="-1560.2,663.4 -1584.9,620.6 -1560.2,577.8 -1510.8,577.8 -1486.1,620.6 -1510.8,663.4 	"/>
	<polygon class="st4" points="-1264.2,751 -1288.9,708.2 -1264.2,665.4 -1214.8,665.4 -1190.1,708.2 -1214.8,751 	"/>
	<polygon class="st4" points="-1190.2,707.7 -1214.9,664.9 -1190.2,622.1 -1140.8,622.1 -1116,664.9 -1140.8,707.7 	"/>
	<polygon class="st4" points="-1486.2,791.8 -1510.9,749 -1486.2,706.2 -1436.8,706.2 -1412,749 -1436.8,791.8 	"/>
	<polygon class="st4" points="-1412.2,835.1 -1436.9,792.3 -1412.2,749.5 -1362.8,749.5 -1338.1,792.3 -1362.8,835.1 	"/>
	<polygon class="st4" points="-1338.2,791.8 -1362.9,749 -1338.2,706.2 -1288.8,706.2 -1264,749 -1288.8,791.8 	"/>
	<polygon class="st4" points="-1486.2,619.6 -1510.9,576.8 -1486.2,534 -1436.8,534 -1412,576.8 -1436.8,619.6 	"/>
	<polygon class="st4" points="-1412.2,662.9 -1436.9,620.1 -1412.2,577.3 -1362.8,577.3 -1338.1,620.1 -1362.8,662.9 	"/>
	<polygon class="st4" points="-1412.2,577.3 -1436.9,534.5 -1412.2,491.6 -1362.8,491.6 -1338.1,534.5 -1362.8,577.3 	"/>
	<polygon class="st4" points="-1338.2,619.6 -1362.9,576.8 -1338.2,534 -1288.8,534 -1264,576.8 -1288.8,619.6 	"/>
	<polygon class="st4" points="-1116.2,664.6 -1140.9,621.8 -1116.2,579 -1066.8,579 -1042,621.8 -1066.8,664.6 	"/>
	<polygon class="st4" points="-1042.2,707.9 -1066.9,665.1 -1042.2,622.3 -992.8,622.3 -968.1,665.1 -992.8,707.9 	"/>
	<polygon class="st4" points="-1338.2,877.6 -1362.9,834.8 -1338.2,792 -1288.8,792 -1264,834.8 -1288.8,877.6 	"/>
	<polygon class="st4" points="-1264.2,835.3 -1288.9,792.5 -1264.2,749.7 -1214.8,749.7 -1190.1,792.5 -1214.8,835.3 	"/>
	<polygon class="st4" points="-1190.2,879.6 -1214.9,836.8 -1190.2,794 -1140.8,794 -1116,836.8 -1140.8,879.6 	"/>
	<polygon class="st4" points="-1041.7,879.6 -1066.4,836.8 -1041.7,794 -992.2,794 -967.5,836.8 -992.2,879.6 	"/>
	<polygon class="st4" points="-1116.2,923.4 -1140.9,880.6 -1116.2,837.8 -1066.8,837.8 -1042.1,880.6 -1066.8,923.4 	"/>
	<polygon class="st4" points="-1190.2,793.5 -1214.9,750.7 -1190.2,707.9 -1140.8,707.9 -1116,750.7 -1140.8,793.5 	"/>
	<polygon class="st4" points="-1116.2,836.8 -1140.9,794 -1116.2,751.2 -1066.8,751.2 -1042.1,794 -1066.8,836.8 	"/>
	<polygon class="st4" points="-1116.2,751.2 -1140.9,708.4 -1116.2,665.6 -1066.8,665.6 -1042.1,708.4 -1066.8,751.2 	"/>
	<polygon class="st4" points="-1041.7,793.5 -1066.4,750.7 -1041.7,707.9 -992.2,707.9 -967.5,750.7 -992.2,793.5 	"/>
	<polygon class="st4" points="-1634.2,877.9 -1658.9,835.1 -1634.2,792.3 -1584.8,792.3 -1560.1,835.1 -1584.8,877.9 	"/>
	<polygon class="st4" points="-1486.2,877.9 -1510.9,835.1 -1486.2,792.3 -1436.8,792.3 -1412.1,835.1 -1436.8,877.9 	"/>
	<polygon class="st4" points="-1634.2,964 -1658.9,921.2 -1634.2,878.4 -1584.8,878.4 -1560.1,921.2 -1584.8,964 	"/>
	<polygon class="st4" points="-1634.2,791.8 -1658.9,749 -1634.2,706.2 -1584.8,706.2 -1560.1,749 -1584.8,791.8 	"/>
	<polygon class="st4" points="-1412.2,920.7 -1436.9,877.9 -1412.2,835.1 -1362.8,835.1 -1338.1,877.9 -1362.8,920.7 	"/>
	<polygon class="st4" points="-1116.2,491.6 -1140.9,448.8 -1116.2,406 -1066.8,406 -1042,448.8 -1066.8,491.6 	"/>
	<polygon class="st4" points="-1116.2,577.8 -1140.9,535 -1116.2,492.1 -1066.8,492.1 -1042,535 -1066.8,577.8 	"/>
	<polygon class="st4" points="-1042.2,621.3 -1066.9,578.5 -1042.2,535.7 -992.8,535.7 -968.1,578.5 -992.8,621.3 	"/>
	<polygon class="st4" points="-968.2,663.6 -992.9,620.8 -968.2,578 -918.8,578 -894,620.8 -918.8,663.6 	"/>
	<polygon class="st4" points="-968.2,577.5 -992.9,534.7 -968.2,491.9 -918.8,491.9 -894,534.7 -918.8,577.5 	"/>
	<polygon class="st4" points="-598.2,536.5 -622.9,493.6 -598.2,450.8 -548.8,450.8 -524.1,493.6 -548.8,536.5 	"/>
	<polygon class="st4" points="-598.2,622.6 -622.9,579.8 -598.2,537 -548.8,537 -524.1,579.8 -548.8,622.6 	"/>
	<polygon class="st4" points="-746.2,363.7 -770.9,320.9 -746.2,278.1 -696.8,278.1 -672,320.9 -696.8,363.7 	"/>
	<polygon class="st4" points="-672.2,407 -696.9,364.2 -672.2,321.4 -622.8,321.4 -598.1,364.2 -622.8,407 	"/>
	<polygon class="st4" points="-820.2,235.3 -844.9,192.5 -820.2,149.7 -770.8,149.7 -746.1,192.5 -770.8,235.3 	"/>
</g>
<g id="Gold_Group">
	<polygon class="st5" points="-1264.2,318.4 -1288.9,275.6 -1264.2,232.8 -1214.8,232.8 -1190,275.6 -1214.8,318.4 	"/>
	<polygon class="st5" points="-1190.2,362.2 -1214.9,319.4 -1190.2,276.6 -1140.8,276.6 -1116.1,319.4 -1140.8,362.2 	"/>
	<polygon class="st5" points="-1190.2,190.5 -1214.9,147.7 -1190.2,104.9 -1140.8,104.9 -1116,147.7 -1140.8,190.5 	"/>
	<polygon class="st5" points="-1116.2,234.3 -1140.9,191.5 -1116.2,148.7 -1066.8,148.7 -1042.1,191.5 -1066.8,234.3 	"/>
	<polygon class="st5" points="-1116.2,147.7 -1140.9,104.9 -1116.2,62.1 -1066.8,62.1 -1042.1,104.9 -1066.8,147.7 	"/>
</g>
<g id="Path_Group">
	<polygon class="st6" points="-1634.2,361.7 -1658.9,318.9 -1634.2,276.1 -1584.8,276.1 -1560.1,318.9 -1584.8,361.7 	"/>
	<polygon class="st6" points="-1560.2,318.4 -1584.9,275.6 -1560.2,232.8 -1510.8,232.8 -1486,275.6 -1510.8,318.4 	"/>
	<polygon class="st6" points="-1412.2,318.4 -1436.9,275.6 -1412.2,232.8 -1362.8,232.8 -1338,275.6 -1362.8,318.4 	"/>
	<polygon class="st6" points="-1338.2,276.1 -1362.9,233.3 -1338.2,190.5 -1288.8,190.5 -1264.1,233.3 -1288.8,276.1 	"/>
	<polygon class="st6" points="-1486.2,275.6 -1510.9,232.8 -1486.2,190 -1436.8,190 -1412.1,232.8 -1436.8,275.6 	"/>
	<polygon class="st6" points="-1264.2,576.8 -1288.9,534 -1264.2,491.1 -1214.8,491.1 -1190,534 -1214.8,576.8 	"/>
	<polygon class="st6" points="-1190.2,534.5 -1214.9,491.6 -1190.2,448.8 -1140.8,448.8 -1116.1,491.6 -1140.8,534.5 	"/>
	<polygon class="st6" points="-1190.2,447.8 -1214.9,405 -1190.2,362.2 -1140.8,362.2 -1116.1,405 -1140.8,447.8 	"/>
	<polygon class="st6" points="-1116.2,404.5 -1140.9,361.7 -1116.2,318.9 -1066.8,318.9 -1042,361.7 -1066.8,404.5 	"/>
	<polygon class="st6" points="-1560.2,576.8 -1584.9,534 -1560.2,491.1 -1510.8,491.1 -1486.1,534 -1510.8,576.8 	"/>
	<polygon class="st6" points="-1486.2,533.5 -1510.9,490.6 -1486.2,447.8 -1436.8,447.8 -1412,490.6 -1436.8,533.5 	"/>
	<polygon class="st6" points="-1708.2,577.3 -1732.9,534.5 -1708.2,491.6 -1658.8,491.6 -1634.1,534.5 -1658.8,577.3 	"/>
	<polygon class="st6" points="-1634.2,619.6 -1658.9,576.8 -1634.2,534 -1584.8,534 -1560,576.8 -1584.8,619.6 	"/>
	<polygon class="st6" points="-1708.2,490.6 -1732.9,447.8 -1708.2,405 -1658.8,405 -1634.1,447.8 -1658.8,490.6 	"/>
	<polygon class="st6" points="-1708.2,405 -1732.9,362.2 -1708.2,319.4 -1658.8,319.4 -1634.1,362.2 -1658.8,405 	"/>
	<polygon class="st6" points="-1560.2,749 -1584.9,706.2 -1560.2,663.4 -1510.8,663.4 -1486.1,706.2 -1510.8,749 	"/>
	<polygon class="st6" points="-1486.2,705.7 -1510.9,662.9 -1486.2,620.1 -1436.8,620.1 -1412,662.9 -1436.8,705.7 	"/>
	<polygon class="st6" points="-1338.2,705.7 -1362.9,662.9 -1338.2,620.1 -1288.8,620.1 -1264,662.9 -1288.8,705.7 	"/>
	<polygon class="st6" points="-1264.2,663.4 -1288.9,620.6 -1264.2,577.8 -1214.8,577.8 -1190.1,620.6 -1214.8,663.4 	"/>
	<polygon class="st6" points="-1412.2,749.5 -1436.9,706.7 -1412.2,663.9 -1362.8,663.9 -1338.1,706.7 -1362.8,749.5 	"/>
	<polygon class="st6" points="-967.7,748.7 -992.4,705.9 -967.7,663.1 -918.2,663.1 -893.5,705.9 -918.2,748.7 	"/>
	<polygon class="st6" points="-893.7,706.4 -918.4,663.6 -893.7,620.8 -844.3,620.8 -819.6,663.6 -844.3,706.4 	"/>
	<polygon class="st6" points="-819.7,748.7 -844.4,705.9 -819.7,663.1 -770.2,663.1 -745.5,705.9 -770.2,748.7 	"/>
	<polygon class="st6" points="-746.2,878.1 -770.9,835.3 -746.2,792.5 -696.8,792.5 -672.1,835.3 -696.8,878.1 	"/>
	<polygon class="st6" points="-746.2,792.5 -770.9,749.7 -746.2,706.9 -696.8,706.9 -672.1,749.7 -696.8,792.5 	"/>
	<polygon class="st6" points="-524.2,834.8 -548.9,792 -524.2,749.2 -474.8,749.2 -450,792 -474.8,834.8 	"/>
	<polygon class="st6" points="-672.2,920.9 -696.9,878.1 -672.2,835.3 -622.8,835.3 -598,878.1 -622.8,920.9 	"/>
	<polygon class="st6" points="-598.2,964.2 -622.9,921.4 -598.2,878.6 -548.8,878.6 -524.1,921.4 -548.8,964.2 	"/>
	<polygon class="st6" points="-524.2,920.9 -548.9,878.1 -524.2,835.3 -474.8,835.3 -450,878.1 -474.8,920.9 	"/>
	<polygon class="st6" points="-524.2,748.7 -548.9,705.9 -524.2,663.1 -474.8,663.1 -450,705.9 -474.8,748.7 	"/>
	<polygon class="st6" points="-1264.2,920.9 -1288.9,878.1 -1264.2,835.3 -1214.8,835.3 -1190.1,878.1 -1214.8,920.9 	"/>
	<polygon class="st6" points="-968.2,920.9 -992.9,878.1 -968.2,835.3 -918.8,835.3 -894.1,878.1 -918.8,920.9 	"/>
	<polygon class="st6" points="-967.7,835.3 -992.4,792.5 -967.7,749.7 -918.3,749.7 -893.6,792.5 -918.3,835.3 	"/>
	<polygon class="st6" points="-1190.2,963.7 -1214.9,920.9 -1190.2,878.1 -1140.8,878.1 -1116,920.9 -1140.8,963.7 	"/>
	<polygon class="st6" points="-1116.2,1007 -1140.9,964.2 -1116.2,921.4 -1066.8,921.4 -1042.1,964.2 -1066.8,1007 	"/>
	<polygon class="st6" points="-1042.2,963.7 -1066.9,920.9 -1042.2,878.1 -992.8,878.1 -968,920.9 -992.8,963.7 	"/>
	<polygon class="st6" points="-524.2,664.9 -548.9,622.1 -524.2,579.3 -474.8,579.3 -450.1,622.1 -474.8,664.9 	"/>
	<polygon class="st6" points="-524.2,579.3 -548.9,536.5 -524.2,493.6 -474.8,493.6 -450.1,536.5 -474.8,579.3 	"/>
	<polygon class="st6" points="-524.2,492.6 -548.9,449.8 -524.2,407 -474.8,407 -450.1,449.8 -474.8,492.6 	"/>
	<polygon class="st6" points="-524.2,407 -548.9,364.2 -524.2,321.4 -474.8,321.4 -450.1,364.2 -474.8,407 	"/>
	<polygon class="st6" points="-1560.2,921.2 -1584.9,878.4 -1560.2,835.6 -1510.8,835.6 -1486.1,878.4 -1510.8,921.2 	"/>
	<polygon class="st6" points="-1560.2,835.6 -1584.9,792.8 -1560.2,750 -1510.8,750 -1486.1,792.8 -1510.8,835.6 	"/>
	<polygon class="st6" points="-1486.2,963 -1510.9,920.2 -1486.2,877.4 -1436.8,877.4 -1412.1,920.2 -1436.8,963 	"/>
	<polygon class="st6" points="-1412.2,1006.3 -1436.9,963.5 -1412.2,920.7 -1362.8,920.7 -1338.1,963.5 -1362.8,1006.3 	"/>
	<polygon class="st6" points="-1338.2,963 -1362.9,920.2 -1338.2,877.4 -1288.8,877.4 -1264.1,920.2 -1288.8,963 	"/>
	<polygon class="st6" points="-672.2,233.8 -696.9,191 -672.2,148.2 -622.8,148.2 -598,191 -622.8,233.8 	"/>
	<polygon class="st6" points="-598.2,191.5 -622.9,148.7 -598.2,105.9 -548.8,105.9 -524.1,148.7 -548.8,191.5 	"/>
	<polygon class="st6" points="-598.2,104.9 -622.9,62.1 -598.2,19.3 -548.8,19.3 -524.1,62.1 -548.8,104.9 	"/>
	<polygon class="st6" points="-1264.2,233.8 -1288.9,191 -1264.2,148.2 -1214.8,148.2 -1190.1,191 -1214.8,233.8 	"/>
	<polygon class="st6" points="-1190.2,276.6 -1214.9,233.8 -1190.2,191 -1140.8,191 -1116,233.8 -1140.8,276.6 	"/>
	<polygon class="st6" points="-1116.2,319.9 -1140.9,277.1 -1116.2,234.3 -1066.8,234.3 -1042.1,277.1 -1066.8,319.9 	"/>
	<polygon class="st6" points="-672.2,320.4 -696.9,277.6 -672.2,234.8 -622.8,234.8 -598.1,277.6 -622.8,320.4 	"/>
	<polygon class="st6" points="-598.2,362.7 -622.9,319.9 -598.2,277.1 -548.8,277.1 -524,319.9 -548.8,362.7 	"/>
</g>
<g id="Water_Group">
	<polygon class="st7" points="-1042.2,534 -1066.9,491.1 -1042.2,448.3 -992.8,448.3 -968.1,491.1 -992.8,534 	"/>
	<polygon class="st7" points="-1042.2,448.3 -1066.9,405.5 -1042.2,362.7 -992.8,362.7 -968.1,405.5 -992.8,448.3 	"/>
	<polygon class="st7" points="-968.2,490.6 -992.9,447.8 -968.2,405 -918.8,405 -894,447.8 -918.8,490.6 	"/>
	<polygon class="st7" points="-746.2,620.3 -770.9,577.5 -746.2,534.7 -696.8,534.7 -672.1,577.5 -696.8,620.3 	"/>
	<polygon class="st7" points="-894.2,534.2 -918.9,491.4 -894.2,448.6 -844.8,448.6 -820.1,491.4 -844.8,534.2 	"/>
	<polygon class="st7" points="-820.2,576.5 -844.9,533.7 -820.2,490.9 -770.8,490.9 -746,533.7 -770.8,576.5 	"/>
	<polygon class="st7" points="-746.2,535.5 -770.9,492.6 -746.2,449.8 -696.8,449.8 -672.1,492.6 -696.8,535.5 	"/>
	<polygon class="st7" points="-672.2,578.8 -696.9,536 -672.2,493.1 -622.8,493.1 -598.1,536 -622.8,578.8 	"/>
	<polygon class="st7" points="-968.2,406 -992.9,363.2 -968.2,320.4 -918.8,320.4 -894.1,363.2 -918.8,406 	"/>
	<polygon class="st7" points="-894.2,362.7 -918.9,319.9 -894.2,277.1 -844.8,277.1 -820,319.9 -844.8,362.7 	"/>
	<polygon class="st7" points="-894.2,448.8 -918.9,406 -894.2,363.2 -844.8,363.2 -820,406 -844.8,448.8 	"/>
	<polygon class="st7" points="-820.2,492.1 -844.9,449.3 -820.2,406.5 -770.8,406.5 -746.1,449.3 -770.8,492.1 	"/>
	<polygon class="st7" points="-820.2,406.5 -844.9,363.7 -820.2,320.9 -770.8,320.9 -746.1,363.7 -770.8,406.5 	"/>
	<polygon class="st7" points="-746.2,448.8 -770.9,406 -746.2,363.2 -696.8,363.2 -672,406 -696.8,448.8 	"/>
	<polygon class="st7" points="-820.2,319.9 -844.9,277.1 -820.2,234.3 -770.8,234.3 -746.1,277.1 -770.8,319.9 	"/>
	<polygon class="st7" points="-893.7,793 -918.4,750.2 -893.7,707.4 -844.3,707.4 -819.6,750.2 -844.3,793 	"/>
	<polygon class="st7" points="-894.2,878.6 -918.9,835.8 -894.2,793 -844.8,793 -820,835.8 -844.8,878.6 	"/>
	<polygon class="st7" points="-820.2,922.4 -844.9,879.6 -820.2,836.8 -770.8,836.8 -746.1,879.6 -770.8,922.4 	"/>
	<polygon class="st7" points="-819.7,835.8 -844.4,793 -819.7,750.2 -770.2,750.2 -745.5,793 -770.2,835.8 	"/>
	<polygon class="st7" points="-894.2,620.8 -918.9,578 -894.2,535.2 -844.8,535.2 -820.1,578 -844.8,620.8 	"/>
	<polygon class="st7" points="-672.2,494.1 -696.9,451.3 -672.2,408.5 -622.8,408.5 -598.1,451.3 -622.8,494.1 	"/>
	<polygon class="st7" points="-894.2,277.6 -918.9,234.8 -894.2,192 -844.8,192 -820,234.8 -844.8,277.6 	"/>
	<polygon class="st7" points="-1042.2,363.7 -1066.9,320.9 -1042.2,278.1 -992.8,278.1 -968,320.9 -992.8,363.7 	"/>
	<polygon class="st7" points="-968.2,321.4 -992.9,278.6 -968.2,235.8 -918.8,235.8 -894.1,278.6 -918.8,321.4 	"/>
	<polygon class="st7" points="-820.2,663.6 -844.9,620.8 -820.2,578 -770.8,578 -746,620.8 -770.8,663.6 	"/>
	<polygon class="st7" points="-746.2,706.9 -770.9,664.1 -746.2,621.3 -696.8,621.3 -672.1,664.1 -696.8,706.9 	"/>
	<polygon class="st7" points="-672.2,663.6 -696.9,620.8 -672.2,578 -622.8,578 -598,620.8 -622.8,663.6 	"/>
</g>
<g id="Forest_Group">
	<polygon class="st8" points="-1708.2,319.4 -1732.9,276.6 -1708.2,233.8 -1658.8,233.8 -1634,276.6 -1658.8,319.4 	"/>
	<polygon class="st8" points="-1634.2,277.1 -1658.9,234.3 -1634.2,191.5 -1584.8,191.5 -1560.1,234.3 -1584.8,277.1 	"/>
	<polygon class="st8" points="-1560.2,233.3 -1584.9,190.5 -1560.2,147.7 -1510.8,147.7 -1486,190.5 -1510.8,233.3 	"/>
	<polygon class="st8" points="-1486.2,191 -1510.9,148.2 -1486.2,105.4 -1436.8,105.4 -1412.1,148.2 -1436.8,191 	"/>
	<polygon class="st8" points="-1412.2,233.3 -1436.9,190.5 -1412.2,147.7 -1362.8,147.7 -1338,190.5 -1362.8,233.3 	"/>
	<polygon class="st8" points="-1930.2,533 -1954.9,490.1 -1930.2,447.3 -1880.8,447.3 -1856,490.1 -1880.8,533 	"/>
	<polygon class="st8" points="-1856.2,577.8 -1880.9,535 -1856.2,492.1 -1806.8,492.1 -1782.1,535 -1806.8,577.8 	"/>
	<polygon class="st8" points="-1782.2,620.6 -1806.9,577.8 -1782.2,535 -1732.8,535 -1708,577.8 -1732.8,620.6 	"/>
	<polygon class="st8" points="-672.2,835.8 -696.9,793 -672.2,750.2 -622.8,750.2 -598,793 -622.8,835.8 	"/>
	<polygon class="st8" points="-450.2,879.1 -474.9,836.3 -450.2,793.5 -400.8,793.5 -376.1,836.3 -400.8,879.1 	"/>
	<polygon class="st8" points="-450.2,793.5 -474.9,750.7 -450.2,707.9 -400.8,707.9 -376.1,750.7 -400.8,793.5 	"/>
	<polygon class="st8" points="-598.2,879.6 -622.9,836.8 -598.2,794 -548.8,794 -524.1,836.8 -548.8,879.6 	"/>
	<polygon class="st8" points="-375.7,921.9 -400.4,879.1 -375.7,836.3 -326.3,836.3 -301.6,879.1 -326.3,921.9 	"/>
	<polygon class="st8" points="-672.2,749.7 -696.9,706.9 -672.2,664.1 -622.8,664.1 -598,706.9 -622.8,749.7 	"/>
	<polygon class="st8" points="-598.2,793 -622.9,750.2 -598.2,707.4 -548.8,707.4 -524.1,750.2 -548.8,793 	"/>
	<polygon class="st8" points="-598.2,707.4 -622.9,664.6 -598.2,621.8 -548.8,621.8 -524.1,664.6 -548.8,707.4 	"/>
	<polygon class="st8" points="-1042.2,1050.8 -1066.9,1008 -1042.2,965.2 -992.8,965.2 -968,1008 -992.8,1050.8 	"/>
	<polygon class="st8" points="-968.2,1094.1 -992.9,1051.3 -968.2,1008.5 -918.8,1008.5 -894.1,1051.3 -918.8,1094.1 	"/>
	<polygon class="st8" points="-968.2,1008.5 -992.9,965.7 -968.2,922.9 -918.8,922.9 -894.1,965.7 -918.8,1008.5 	"/>
	<polygon class="st8" points="-894.2,1050.8 -918.9,1008 -894.2,965.2 -844.8,965.2 -820,1008 -844.8,1050.8 	"/>
	<polygon class="st8" points="-746.2,1050.8 -770.9,1008 -746.2,965.2 -696.8,965.2 -672,1008 -696.8,1050.8 	"/>
	<polygon class="st8" points="-672.2,1094.1 -696.9,1051.3 -672.2,1008.5 -622.8,1008.5 -598.1,1051.3 -622.8,1094.1 	"/>
	<polygon class="st8" points="-672.2,1008.5 -696.9,965.7 -672.2,922.9 -622.8,922.9 -598.1,965.7 -622.8,1008.5 	"/>
	<polygon class="st8" points="-598.2,1050.8 -622.9,1008 -598.2,965.2 -548.8,965.2 -524,1008 -548.8,1050.8 	"/>
	<polygon class="st8" points="-820.2,1094.6 -844.9,1051.8 -820.2,1009 -770.8,1009 -746.1,1051.8 -770.8,1094.6 	"/>
	<polygon class="st8" points="-894.2,964.7 -918.9,921.9 -894.2,879.1 -844.8,879.1 -820,921.9 -844.8,964.7 	"/>
	<polygon class="st8" points="-820.2,1008 -844.9,965.2 -820.2,922.4 -770.8,922.4 -746.1,965.2 -770.8,1008 	"/>
	<polygon class="st8" points="-746.2,964.7 -770.9,921.9 -746.2,879.1 -696.8,879.1 -672,921.9 -696.8,964.7 	"/>
	<polygon class="st8" points="-524.2,321.4 -548.9,278.6 -524.2,235.8 -474.8,235.8 -450.1,278.6 -474.8,321.4 	"/>
	<polygon class="st8" points="-450.2,364.7 -474.9,321.9 -450.2,279.1 -400.8,279.1 -376.1,321.9 -400.8,364.7 	"/>
	<polygon class="st8" points="-450.2,279.1 -474.9,236.3 -450.2,193.5 -400.8,193.5 -376.1,236.3 -400.8,279.1 	"/>
	<polygon class="st8" points="-376.2,321.4 -400.9,278.6 -376.2,235.8 -326.8,235.8 -302.1,278.6 -326.8,321.4 	"/>
	<polygon class="st8" points="-375.7,407.5 -400.4,364.7 -375.7,321.9 -326.3,321.9 -301.6,364.7 -326.3,407.5 	"/>
	<polygon class="st8" points="-376.2,235.3 -400.9,192.5 -376.2,149.7 -326.8,149.7 -302.1,192.5 -326.8,235.3 	"/>
	<polygon class="st8" points="-449.7,536.5 -474.4,493.6 -449.7,450.8 -400.3,450.8 -375.6,493.6 -400.3,536.5 	"/>
	<polygon class="st8" points="-376.2,579.8 -400.9,537 -376.2,494.1 -326.8,494.1 -302.1,537 -326.8,579.8 	"/>
	<polygon class="st8" points="-375.7,494.1 -400.4,451.3 -375.7,408.5 -326.3,408.5 -301.6,451.3 -326.3,494.1 	"/>
	<polygon class="st8" points="-450.2,622.6 -474.9,579.8 -450.2,537 -400.8,537 -376.1,579.8 -400.8,622.6 	"/>
	<polygon class="st8" points="-598.2,450.3 -622.9,407.5 -598.2,364.7 -548.8,364.7 -524.1,407.5 -548.8,450.3 	"/>
	<polygon class="st8" points="-449.7,450.3 -474.4,407.5 -449.7,364.7 -400.3,364.7 -375.6,407.5 -400.3,450.3 	"/>
	<polygon class="st8" points="-450.2,708.7 -474.9,665.9 -450.2,623.1 -400.8,623.1 -376.1,665.9 -400.8,708.7 	"/>
	<polygon class="st8" points="-376.2,752 -400.9,709.2 -376.2,666.4 -326.8,666.4 -302.1,709.2 -326.8,752 	"/>
	<polygon class="st8" points="-376.2,666.4 -400.9,623.6 -376.2,580.8 -326.8,580.8 -302.1,623.6 -326.8,666.4 	"/>
	<polygon class="st8" points="-524.2,1091.9 -548.9,1049.1 -524.2,1006.3 -474.8,1006.3 -450,1049.1 -474.8,1091.9 	"/>
	<polygon class="st8" points="-524.2,1008 -548.9,965.2 -524.2,922.4 -474.8,922.4 -450.1,965.2 -474.8,1008 	"/>
	<polygon class="st8" points="-450.2,964.7 -474.9,921.9 -450.2,879.1 -400.8,879.1 -376.1,921.9 -400.8,964.7 	"/>
	<polygon class="st8" points="-450.2,1050.8 -474.9,1008 -450.2,965.2 -400.8,965.2 -376.1,1008 -400.8,1050.8 	"/>
	<polygon class="st8" points="-376.2,1094.1 -400.9,1051.3 -376.2,1008.5 -326.8,1008.5 -302.1,1051.3 -326.8,1094.1 	"/>
	<polygon class="st8" points="-376.2,1008.5 -400.9,965.7 -376.2,922.9 -326.8,922.9 -302.1,965.7 -326.8,1008.5 	"/>
	<polygon class="st8" points="-2226.2,705.2 -2250.9,662.4 -2226.2,619.6 -2176.8,619.6 -2152.1,662.4 -2176.8,705.2 	"/>
	<polygon class="st8" points="-2152.2,748.5 -2176.9,705.7 -2152.2,662.9 -2102.8,662.9 -2078.1,705.7 -2102.8,748.5 	"/>
	<polygon class="st8" points="-2078.2,705.2 -2102.9,662.4 -2078.2,619.6 -2028.8,619.6 -2004.1,662.4 -2028.8,705.2 	"/>
	<polygon class="st8" points="-1930.2,705.2 -1954.9,662.4 -1930.2,619.6 -1880.8,619.6 -1856.1,662.4 -1880.8,705.2 	"/>
	<polygon class="st8" points="-1856.2,748.5 -1880.9,705.7 -1856.2,662.9 -1806.8,662.9 -1782.1,705.7 -1806.8,748.5 	"/>
	<polygon class="st8" points="-1856.2,664.4 -1880.9,621.6 -1856.2,578.8 -1806.8,578.8 -1782.1,621.6 -1806.8,664.4 	"/>
	<polygon class="st8" points="-1782.2,706.7 -1806.9,663.9 -1782.2,621.1 -1732.8,621.1 -1708.1,663.9 -1732.8,706.7 	"/>
	<polygon class="st8" points="-2004.2,662.4 -2028.9,619.6 -2004.2,576.8 -1954.8,576.8 -1930.1,619.6 -1954.8,662.4 	"/>
	<polygon class="st8" points="-2004.2,576.8 -2028.9,534 -2004.2,491.1 -1954.8,491.1 -1930.1,534 -1954.8,576.8 	"/>
	<polygon class="st8" points="-1930.2,619.1 -1954.9,576.3 -1930.2,533.5 -1880.8,533.5 -1856.1,576.3 -1880.8,619.1 	"/>
	<polygon class="st8" points="-1782.2,965 -1806.9,922.2 -1782.2,879.4 -1732.8,879.4 -1708.1,922.2 -1732.8,965 	"/>
	<polygon class="st8" points="-1708.2,1008.3 -1732.9,965.5 -1708.2,922.7 -1658.8,922.7 -1634.1,965.5 -1658.8,1008.3 	"/>
	<polygon class="st8" points="-1708.2,922.7 -1732.9,879.9 -1708.2,837.1 -1658.8,837.1 -1634.1,879.9 -1658.8,922.7 	"/>
	<polygon class="st8" points="-1708.2,836.1 -1732.9,793.3 -1708.2,750.5 -1658.8,750.5 -1634.1,793.3 -1658.8,836.1 	"/>
	<polygon class="st8" points="-1708.2,750.5 -1732.9,707.7 -1708.2,664.9 -1658.8,664.9 -1634.1,707.7 -1658.8,750.5 	"/>
	<polygon class="st8" points="-2226.2,1049.6 -2250.9,1006.8 -2226.2,964 -2176.8,964 -2152.1,1006.8 -2176.8,1049.6 	"/>
	<polygon class="st8" points="-2226.2,964 -2250.9,921.2 -2226.2,878.4 -2176.8,878.4 -2152.1,921.2 -2176.8,964 	"/>
	<polygon class="st8" points="-2152.2,1006.3 -2176.9,963.5 -2152.2,920.7 -2102.8,920.7 -2078.1,963.5 -2102.8,1006.3 	"/>
	<polygon class="st8" points="-2226.2,877.4 -2250.9,834.6 -2226.2,791.8 -2176.8,791.8 -2152.1,834.6 -2176.8,877.4 	"/>
	<polygon class="st8" points="-2226.2,791.8 -2250.9,749 -2226.2,706.2 -2176.8,706.2 -2152.1,749 -2176.8,791.8 	"/>
	<polygon class="st8" points="-2151.7,834.1 -2176.4,791.3 -2151.7,748.5 -2102.3,748.5 -2077.6,791.3 -2102.3,834.1 	"/>
	<polygon class="st8" points="-2152.2,1092.4 -2176.9,1049.6 -2152.2,1006.8 -2102.8,1006.8 -2078.1,1049.6 -2102.8,1092.4 	"/>
	<polygon class="st8" points="-2078.2,1051.6 -2102.9,1008.8 -2078.2,966 -2028.8,966 -2004.1,1008.8 -2028.8,1051.6 	"/>
	<polygon class="st8" points="-2004.2,1093.9 -2028.9,1051.1 -2004.2,1008.3 -1954.8,1008.3 -1930.1,1051.1 -1954.8,1093.9 	"/>
	<polygon class="st8" points="-1856.2,1093.9 -1880.9,1051.1 -1856.2,1008.3 -1806.8,1008.3 -1782.1,1051.1 -1806.8,1093.9 	"/>
	<polygon class="st8" points="-1782.2,1051.6 -1806.9,1008.8 -1782.2,966 -1732.8,966 -1708.1,1008.8 -1732.8,1051.6 	"/>
	<polygon class="st8" points="-1708.2,1093.9 -1732.9,1051.1 -1708.2,1008.3 -1658.8,1008.3 -1634.1,1051.1 -1658.8,1093.9 	"/>
	<polygon class="st8" points="-2004.2,1007.8 -2028.9,965 -2004.2,922.2 -1954.8,922.2 -1930.1,965 -1954.8,1007.8 	"/>
	<polygon class="st8" points="-1930.2,1051.1 -1954.9,1008.3 -1930.2,965.5 -1880.8,965.5 -1856.1,1008.3 -1880.8,1051.1 	"/>
	<polygon class="st8" points="-1856.2,1007.8 -1880.9,965 -1856.2,922.2 -1806.8,922.2 -1782.1,965 -1806.8,1007.8 	"/>
	<polygon class="st8" points="-2151.2,62.1 -2175.9,19.3 -2151.2,-23.5 -2101.7,-23.5 -2077,19.3 -2101.7,62.1 	"/>
	<polygon class="st8" points="-2077.2,105.4 -2101.9,62.6 -2077.2,19.8 -2027.8,19.8 -2003,62.6 -2027.8,105.4 	"/>
	<polygon class="st8" points="-2003.2,62.1 -2027.9,19.3 -2003.2,-23.5 -1953.7,-23.5 -1929,19.3 -1953.7,62.1 	"/>
	<polygon class="st8" points="-2003.2,148.2 -2027.9,105.4 -2003.2,62.6 -1953.7,62.6 -1929,105.4 -1953.7,148.2 	"/>
	<polygon class="st8" points="-1929.7,191.5 -1954.4,148.7 -1929.7,105.9 -1880.3,105.9 -1855.6,148.7 -1880.3,191.5 	"/>
	<polygon class="st8" points="-1929.7,105.9 -1954.4,63.1 -1929.7,20.3 -1880.3,20.3 -1855.6,63.1 -1880.3,105.9 	"/>
	<polygon class="st8" points="-1855.7,148.2 -1880.4,105.4 -1855.7,62.6 -1806.2,62.6 -1781.5,105.4 -1806.2,148.2 	"/>
	<polygon class="st8" points="-1707.7,149.7 -1732.4,106.9 -1707.7,64.1 -1658.2,64.1 -1633.5,106.9 -1658.2,149.7 	"/>
	<polygon class="st8" points="-1633.7,193 -1658.4,150.2 -1633.7,107.4 -1584.3,107.4 -1559.6,150.2 -1584.3,193 	"/>
	<polygon class="st8" points="-1633.7,107.4 -1658.4,64.6 -1633.7,21.8 -1584.3,21.8 -1559.6,64.6 -1584.3,107.4 	"/>
	<polygon class="st8" points="-1559.7,149.7 -1584.4,106.9 -1559.7,64.1 -1510.2,64.1 -1485.5,106.9 -1510.2,149.7 	"/>
	<polygon class="st8" points="-1855.7,234.3 -1880.4,191.5 -1855.7,148.7 -1806.2,148.7 -1781.5,191.5 -1806.2,234.3 	"/>
	<polygon class="st8" points="-1781.7,279.1 -1806.4,236.3 -1781.7,193.5 -1732.3,193.5 -1707.6,236.3 -1732.3,279.1 	"/>
	<polygon class="st8" points="-1781.7,192 -1806.4,149.2 -1781.7,106.4 -1732.3,106.4 -1707.6,149.2 -1732.3,192 	"/>
	<polygon class="st8" points="-1707.7,235.8 -1732.4,193 -1707.7,150.2 -1658.2,150.2 -1633.5,193 -1658.2,235.8 	"/>
	<polygon class="st8" points="-1855.7,62.1 -1880.4,19.3 -1855.7,-23.5 -1806.2,-23.5 -1781.5,19.3 -1806.2,62.1 	"/>
	<polygon class="st8" points="-1781.7,105.4 -1806.4,62.6 -1781.7,19.8 -1732.3,19.8 -1707.6,62.6 -1732.3,105.4 	"/>
	<polygon class="st8" points="-1707.7,63.6 -1732.4,20.8 -1707.7,-22 -1658.2,-22 -1633.5,20.8 -1658.2,63.6 	"/>
	<polygon class="st8" points="-2225.2,191 -2249.9,148.2 -2225.2,105.4 -2175.7,105.4 -2151,148.2 -2175.7,191 	"/>
	<polygon class="st8" points="-2151.7,234.3 -2176.4,191.5 -2151.7,148.7 -2102.3,148.7 -2077.6,191.5 -2102.3,234.3 	"/>
	<polygon class="st8" points="-2151.2,148.7 -2175.9,105.9 -2151.2,63.1 -2101.8,63.1 -2077,105.9 -2101.8,148.7 	"/>
	<polygon class="st8" points="-2077.7,191 -2102.4,148.2 -2077.7,105.4 -2028.2,105.4 -2003.5,148.2 -2028.2,191 	"/>
	<polygon class="st8" points="-2225.7,277.1 -2250.4,234.3 -2225.7,191.5 -2176.2,191.5 -2151.5,234.3 -2176.2,277.1 	"/>
	<polygon class="st8" points="-2225.2,104.9 -2249.9,62.1 -2225.2,19.3 -2175.7,19.3 -2151,62.1 -2175.7,104.9 	"/>
	<polygon class="st8" points="-2225.7,363.2 -2250.4,320.4 -2225.7,277.6 -2176.2,277.6 -2151.5,320.4 -2176.2,363.2 	"/>
	<polygon class="st8" points="-2151.7,406.5 -2176.4,363.7 -2151.7,320.9 -2102.3,320.9 -2077.6,363.7 -2102.3,406.5 	"/>
	<polygon class="st8" points="-2151.7,320.9 -2176.4,278.1 -2151.7,235.3 -2102.3,235.3 -2077.6,278.1 -2102.3,320.9 	"/>
	<polygon class="st8" points="-1929.7,363.2 -1954.4,320.4 -1929.7,277.6 -1880.2,277.6 -1855.5,320.4 -1880.2,363.2 	"/>
	<polygon class="st8" points="-1855.7,320.9 -1880.4,278.1 -1855.7,235.3 -1806.3,235.3 -1781.6,278.1 -1806.3,320.9 	"/>
	<polygon class="st8" points="-1781.7,364.7 -1806.4,321.9 -1781.7,279.1 -1732.2,279.1 -1707.5,321.9 -1732.2,364.7 	"/>
	<polygon class="st8" points="-2077.7,449.3 -2102.4,406.5 -2077.7,363.7 -2028.2,363.7 -2003.5,406.5 -2028.2,449.3 	"/>
	<polygon class="st8" points="-2003.7,492.6 -2028.4,449.8 -2003.7,407 -1954.3,407 -1929.6,449.8 -1954.3,492.6 	"/>
	<polygon class="st8" points="-2003.7,407 -2028.4,364.2 -2003.7,321.4 -1954.3,321.4 -1929.6,364.2 -1954.3,407 	"/>
	<polygon class="st8" points="-1929.7,449.3 -1954.4,406.5 -1929.7,363.7 -1880.2,363.7 -1855.5,406.5 -1880.2,449.3 	"/>
	<polygon class="st8" points="-2226.2,533.7 -2250.9,490.9 -2226.2,448.1 -2176.8,448.1 -2152.1,490.9 -2176.8,533.7 	"/>
	<polygon class="st8" points="-2226.2,619.8 -2250.9,577 -2226.2,534.2 -2176.8,534.2 -2152.1,577 -2176.8,619.8 	"/>
	<polygon class="st8" points="-2226.2,447.6 -2250.9,404.8 -2226.2,362 -2176.8,362 -2152.1,404.8 -2176.8,447.6 	"/>
	<polygon class="st8" points="-1560.3,64.1 -1585,21.3 -1560.3,-21.5 -1510.8,-21.5 -1486.1,21.3 -1510.8,64.1 	"/>
	<polygon class="st8" points="-1264.3,64.1 -1289,21.3 -1264.3,-21.5 -1214.8,-21.5 -1190.1,21.3 -1214.8,64.1 	"/>
	<polygon class="st8" points="-1486.2,106.9 -1510.9,64.1 -1486.2,21.3 -1436.8,21.3 -1412.1,64.1 -1436.8,106.9 	"/>
	<polygon class="st8" points="-1412.3,150.2 -1437,107.4 -1412.3,64.6 -1362.8,64.6 -1338.1,107.4 -1362.8,150.2 	"/>
	<polygon class="st8" points="-1412.3,64.6 -1437,21.8 -1412.3,-21 -1362.8,-21 -1338.1,21.8 -1362.8,64.6 	"/>
	<polygon class="st8" points="-1338.2,106.9 -1362.9,64.1 -1338.2,21.3 -1288.8,21.3 -1264.1,64.1 -1288.8,106.9 	"/>
	<polygon class="st8" points="-1634.2,1050.1 -1658.9,1007.3 -1634.2,964.5 -1584.8,964.5 -1560.1,1007.3 -1584.8,1050.1 	"/>
	<polygon class="st8" points="-1560.2,1093.4 -1584.9,1050.6 -1560.2,1007.8 -1510.8,1007.8 -1486.1,1050.6 -1510.8,1093.4 	"/>
	<polygon class="st8" points="-1560.2,1007.8 -1584.9,965 -1560.2,922.2 -1510.8,922.2 -1486.1,965 -1510.8,1007.8 	"/>
	<polygon class="st8" points="-1486.2,1050.1 -1510.9,1007.3 -1486.2,964.5 -1436.8,964.5 -1412.1,1007.3 -1436.8,1050.1 	"/>
	<polygon class="st8" points="-1338.2,1050.1 -1362.9,1007.3 -1338.2,964.5 -1288.8,964.5 -1264.1,1007.3 -1288.8,1050.1 	"/>
	<polygon class="st8" points="-1264.2,1093.4 -1288.9,1050.6 -1264.2,1007.8 -1214.8,1007.8 -1190.1,1050.6 -1214.8,1093.4 	"/>
	<polygon class="st8" points="-1264.2,1007.8 -1288.9,965 -1264.2,922.2 -1214.8,922.2 -1190.1,965 -1214.8,1007.8 	"/>
	<polygon class="st8" points="-1190.2,1050.1 -1214.9,1007.3 -1190.2,964.5 -1140.8,964.5 -1116.1,1007.3 -1140.8,1050.1 	"/>
	<polygon class="st8" points="-1411.7,1093.9 -1436.4,1051.1 -1411.7,1008.3 -1362.3,1008.3 -1337.6,1051.1 -1362.3,1093.9 	"/>
	<polygon class="st8" points="-1116.2,1093.9 -1140.9,1051.1 -1116.2,1008.3 -1066.8,1008.3 -1042.1,1051.1 -1066.8,1093.9 	"/>
	<polygon class="st8" points="-967.7,62.6 -992.4,19.8 -967.7,-23 -918.2,-23 -893.5,19.8 -918.2,62.6 	"/>
	<polygon class="st8" points="-893.7,105.9 -918.4,63.1 -893.7,20.3 -844.3,20.3 -819.6,63.1 -844.3,105.9 	"/>
	<polygon class="st8" points="-819.7,62.6 -844.4,19.8 -819.7,-23 -770.2,-23 -745.5,19.8 -770.2,62.6 	"/>
	<polygon class="st8" points="-819.7,148.7 -844.4,105.9 -819.7,63.1 -770.2,63.1 -745.5,105.9 -770.2,148.7 	"/>
	<polygon class="st8" points="-746.2,192 -770.9,149.2 -746.2,106.4 -696.8,106.4 -672.1,149.2 -696.8,192 	"/>
	<polygon class="st8" points="-746.2,106.4 -770.9,63.6 -746.2,20.8 -696.8,20.8 -672.1,63.6 -696.8,106.4 	"/>
	<polygon class="st8" points="-672.2,148.7 -696.9,105.9 -672.2,63.1 -622.8,63.1 -598,105.9 -622.8,148.7 	"/>
	<polygon class="st8" points="-524.2,148.7 -548.9,105.9 -524.2,63.1 -474.8,63.1 -450,105.9 -474.8,148.7 	"/>
	<polygon class="st8" points="-450.2,192 -474.9,149.2 -450.2,106.4 -400.8,106.4 -376.1,149.2 -400.8,192 	"/>
	<polygon class="st8" points="-450.2,106.4 -474.9,63.6 -450.2,20.8 -400.8,20.8 -376.1,63.6 -400.8,106.4 	"/>
	<polygon class="st8" points="-375.7,64.6 -400.4,21.8 -375.7,-21 -326.3,-21 -301.6,21.8 -326.3,64.6 	"/>
	<polygon class="st8" points="-376.2,148.7 -400.9,105.9 -376.2,63.1 -326.8,63.1 -302,105.9 -326.8,148.7 	"/>
	<polygon class="st8" points="-598.2,278.1 -622.9,235.3 -598.2,192.5 -548.8,192.5 -524.1,235.3 -548.8,278.1 	"/>
	<polygon class="st8" points="-524.2,234.8 -548.9,192 -524.2,149.2 -474.8,149.2 -450,192 -474.8,234.8 	"/>
	<polygon class="st8" points="-672.2,62.6 -696.9,19.8 -672.2,-23 -622.8,-23 -598,19.8 -622.8,62.6 	"/>
	<polygon class="st8" points="-524.2,62.6 -548.9,19.8 -524.2,-23 -474.8,-23 -450,19.8 -474.8,62.6 	"/>
	<polygon class="st8" points="-1338.2,191.5 -1362.9,148.7 -1338.2,105.9 -1288.8,105.9 -1264,148.7 -1288.8,191.5 	"/>
	<polygon class="st8" points="-1264.2,149.2 -1288.9,106.4 -1264.2,63.6 -1214.8,63.6 -1190.1,106.4 -1214.8,149.2 	"/>
	<polygon class="st8" points="-1041.7,191.5 -1066.4,148.7 -1041.7,105.9 -992.2,105.9 -967.5,148.7 -992.2,191.5 	"/>
	<polygon class="st8" points="-968.2,234.8 -992.9,192 -968.2,149.2 -918.8,149.2 -894.1,192 -918.8,234.8 	"/>
	<polygon class="st8" points="-967.7,149.2 -992.4,106.4 -967.7,63.6 -918.3,63.6 -893.6,106.4 -918.3,149.2 	"/>
	<polygon class="st8" points="-894.2,191.5 -918.9,148.7 -894.2,105.9 -844.8,105.9 -820,148.7 -844.8,191.5 	"/>
	<polygon class="st8" points="-1042.2,277.6 -1066.9,234.8 -1042.2,192 -992.8,192 -968,234.8 -992.8,277.6 	"/>
	<polygon class="st8" points="-1190.2,105.4 -1214.9,62.6 -1190.2,19.8 -1140.8,19.8 -1116,62.6 -1140.8,105.4 	"/>
	<polygon class="st8" points="-1041.7,105.4 -1066.4,62.6 -1041.7,19.8 -992.2,19.8 -967.5,62.6 -992.2,105.4 	"/>
	<polygon class="st8" points="-746.2,277.6 -770.9,234.8 -746.2,192 -696.8,192 -672,234.8 -696.8,277.6 	"/>
	<polygon class="st8" points="-1116.2,63.1 -1140.9,20.3 -1116.2,-22.5 -1066.8,-22.5 -1042.1,20.3 -1066.8,63.1 	"/>
	<polygon class="st8" points="-1855.7,408 -1880.4,365.2 -1855.7,322.4 -1806.3,322.4 -1781.6,365.2 -1806.3,408 	"/>
	<polygon class="st8" points="-376.2,835.8 -400.9,793 -376.2,750.2 -326.8,750.2 -302,793 -326.8,835.8 	"/>
</g>
<polyline class="st9" points="-573.5,61.6 -573.5,146.2 -647.5,189.5 -647.5,275.6 -573.5,319.9 -499.5,364.7 -499.5,876.9 
	-573.5,922.2 -721.5,836.1 -721.5,751.5 -869.5,665.9 -943,708.2 -943,879.1 -1091.5,965 -1239.5,879.1 -1387.6,965 -1535.6,878.4 
	-1535.6,706.2 -1461,665.9 -1387.6,708.2 -1239.5,620.8 -1239.5,533.5 -1165.5,490.4 -1165.5,404.5 -1091.5,361.2 -1091.5,277.1 
	-1165.5,235.3 -1239.6,189.5 -1387.6,275.4 -1461.5,232.3 -1683.5,362 -1683.5,536.5 -1609.5,579.8 -1535.6,534 -1461.5,490.4 
	-1387,449.3 "/>
<circle class="st10" cx="-647.2" cy="106.9" r="25"/>
<circle class="st10" cx="-721.5" cy="235.3" r="25"/>
<circle cx="-573.5" cy="232.3" r="25"/>
<circle class="st10" cx="-573.5" cy="407.5" r="25"/>
<rect x="-2063.5" y="222.3" width="24" height="24"/>
<path d="M-2040,222.8v23h-23v-23H-2040 M-2039,221.8h-25v25h25V221.8L-2039,221.8z"/>
<rect x="-2063.5" y="309.4" width="24" height="24"/>
<path d="M-2040,309.9v23h-23v-23H-2040 M-2039,308.9h-25v25h25V308.9L-2039,308.9z"/>
<rect x="-2139" y="437.8" width="24" height="24"/>
<path d="M-2115.5,438.3v23h-23v-23H-2115.5 M-2114.5,437.3h-25v25h25V437.3L-2114.5,437.3z"/>
<rect x="-2063.5" y="481.1" width="24" height="24"/>
<path d="M-2040,481.6v23h-23v-23H-2040 M-2039,480.6h-25v25h25V480.6L-2039,480.6z"/>
<rect x="-2063.5" y="737.5" width="24" height="24"/>
<path d="M-2040,738v23h-23v-23H-2040 M-2039,737h-25v25h25V737L-2039,737z"/>
<rect x="-1991.5" y="696.2" width="24" height="24"/>
<path d="M-1968,696.7v23h-23v-23H-1968 M-1967,695.7h-25v25h25V695.7L-1967,695.7z"/>
<rect x="-1991.5" y="780.8" width="24" height="24"/>
<path d="M-1968,781.3v23h-23v-23H-1968 M-1967,780.3h-25v25h25V780.3L-1967,780.3z"/>
<rect x="-1991.5" y="267.6" width="24" height="24"/>
<path d="M-1968,268.1v23h-23v-23H-1968 M-1967,267.1h-25v25h25V267.1L-1967,267.1z"/>
<rect x="-1991.5" y="181.5" width="24" height="24"/>
<path d="M-1968,182v23h-23v-23H-1968 M-1967,181h-25v25h25V181L-1967,181z"/>
<g class="st11">
	<g class="st12">
		<rect x="-260.1" y="113.7" class="st13" width="74.3" height="74.3"/>
		<path d="M-186.2,114.2v73.3h-73.3v-73.3H-186.2 M-185.2,113.2h-75.3v75.3h75.3V113.2L-185.2,113.2z"/>
		<rect x="-166.1" y="138.4" class="st9" width="257.3" height="49.8"/>
		<text transform="matrix(1 0 0 1 -166.0667 154.6465)" class="st14 st15">Grass | Buildable Area</text>
	</g>
	<rect x="226.6" y="138.4" class="st16" width="257.3" height="49.8"/>
	<text transform="matrix(1 0 0 1 226.643 154.6465)" class="st12 st14 st15">Archer | Default</text>
	<g class="st12">
		<rect x="-260.1" y="213.7" class="st6" width="74.3" height="74.3"/>
		<path d="M-186.2,214.2v73.4h-73.3v-73.4L-186.2,214.2 M-185.2,213.2h-75.3v75.4h75.3V213.2L-185.2,213.2z"/>
		<rect x="-166.1" y="238.4" class="st9" width="257.3" height="49.8"/>
		<text transform="matrix(1 0 0 1 -166.0667 254.6465)" class="st14 st15">Path | Creep March</text>
	</g>
	<rect x="226.6" y="238.4" class="st16" width="257.3" height="49.8"/>
	<text transform="matrix(1 0 0 1 226.643 254.6465)" class="st12 st14 st15">Electric | Magic</text>
	<g class="st12">
		<rect x="-260.1" y="313.7" width="74.3" height="74.4"/>
		<path d="M-186.2,314.2v73.4h-73.3v-73.4H-186.2 M-185.2,313.2h-75.3v75.4h75.3V313.2L-185.2,313.2z"/>
		<rect x="-166.1" y="338.4" class="st9" width="257.3" height="49.8"/>
		<text transform="matrix(1 0 0 1 -166.0667 354.6465)" class="st14 st15">Copper | Utility</text>
	</g>
	<rect x="226.6" y="338.4" class="st16" width="257.3" height="49.8"/>
	<text transform="matrix(1 0 0 1 226.643 354.6465)" class="st12 st14 st15">Bee | Agriculture</text>
	<g class="st12">
		<rect x="-260.1" y="413.7" class="st3" width="74.3" height="74.4"/>
		<path d="M-186.2,414.2v73.4h-73.3v-73.4H-186.2 M-185.2,413.2h-75.3v75.4h75.3V413.2L-185.2,413.2z"/>
		<rect x="-166.1" y="438.4" class="st9" width="257.3" height="49.8"/>
		<text transform="matrix(1 0 0 1 -166.0667 454.6465)" class="st14 st15">Ore | Production</text>
	</g>
	<g class="st12">
		<rect x="-260.1" y="513.7" width="74.3" height="74.3"/>
		<path d="M-186.2,514.2v73.3h-73.3v-73.3H-186.2 M-185.2,513.2h-75.3v75.3h75.3V513.2L-185.2,513.2z"/>
		<rect x="-166.1" y="538.4" class="st9" width="257.3" height="49.8"/>
		<text transform="matrix(1 0 0 1 -166.0667 554.6464)" class="st14 st15">Agriculture | Farm / Food</text>
	</g>
	<g class="st12">
		<rect x="-260.1" y="613.7" class="st7" width="74.3" height="74.3"/>
		<path d="M-186.2,614.2v73.3h-73.3v-73.3H-186.2 M-185.2,613.2h-75.3v75.3h75.3V613.2L-185.2,613.2z"/>
		<rect x="-166.1" y="638.4" class="st9" width="257.3" height="49.8"/>
		<text transform="matrix(1 0 0 1 -166.0667 654.6464)" class="st14 st15">Water | Water</text>
	</g>
	<g class="st12">
		<rect x="-260.1" y="713.7" class="st5" width="74.3" height="74.3"/>
		<path d="M-186.2,714.2v73.3h-73.3v-73.3H-186.2 M-185.2,713.2h-75.3v75.3h75.3V713.2L-185.2,713.2z"/>
		<rect x="-166.1" y="735.1" class="st9" width="257.3" height="49.8"/>
		<text transform="matrix(1 0 0 1 -166.0667 751.3494)" class="st14 st15">Gold | Currency</text>
	</g>
	<g class="st12">
		<rect x="-260.1" y="813.7" class="st17" width="74.3" height="74.3"/>
		<path d="M-186.2,814.2v73.3h-73.3v-73.3H-186.2 M-185.2,813.2h-75.3v75.3h75.3V813.2L-185.2,813.2z"/>
		<rect x="-166.1" y="838.4" class="st9" width="257.3" height="49.8"/>
		<text transform="matrix(1 0 0 1 -166.0667 854.6464)" class="st14 st15">Keep | Protec</text>
	</g>
	<g class="st12">
		<circle class="st18" cx="183.4" cy="350.9" r="24.5"/>
		<path d="M183.4,326.9c13.2,0,24,10.8,24,24s-10.8,24-24,24s-24-10.8-24-24S170.2,326.9,183.4,326.9 M183.4,325.9
			c-13.8,0-25,11.2-25,25s11.2,25,25,25s25-11.2,25-25S197.2,325.9,183.4,325.9L183.4,325.9z"/>
	</g>
	<circle class="st19" cx="183.4" cy="250.9" r="25"/>
	<circle class="st20" cx="183.4" cy="150.9" r="25"/>
	<rect x="-191.4" y="943.3" class="st16" width="583.6" height="92.3"/>
	<text transform="matrix(1 0 0 1 -191.3618 965.4636)" class="st12 st14" style="font-size:30px;">Map Size: 13 Long x 24 tall = 312</text>
</g>
<polygon class="st8" points="150,100 100,100 75,143.3 100,186.6 150,186.6 175,143.3 "/>
<line class="st8" x1="100" y1="-9.3" x2="100" y2="383.2"/>
<line class="st8" x1="-56" y1="100" x2="376.6" y2="100"/>
</svg>
