<svg xmlns="http://www.w3.org/2000/svg" width="974" height="1050" viewBox="0 0 974 1050">
  <defs>
    <style>
      .a {
        fill: none;
        stroke: #000;
        stroke-miterlimit: 10;
        stroke-width: 3px;
      }
    </style>
  </defs>
  <g>
    <polygon class="a" points="97 1051 47 1051 22 1101 47 1151 97 1151 122 1101 97 1051"/>
    <polygon class="a" points="22 1001 -28 1001 -53 1051 -28 1101 22 1101 47 1051 22 1001"/>
    <polygon class="a" points="247 1051 197 1051 172 1101 197 1151 247 1151 272 1101 247 1051"/>
    <polygon class="a" points="172 1001 122 1001 97 1051 122 1101 172 1101 197 1051 172 1001"/>
    <polygon class="a" points="97 951 47 951 22 1001 47 1051 97 1051 122 1001 97 951"/>
    <polygon class="a" points="22 901 -28 901 -53 951 -28 1001 22 1001 47 951 22 901"/>
    <polygon class="a" points="397 1051 347 1051 322 1101 347 1151 397 1151 422 1101 397 1051"/>
    <polygon class="a" points="322 1001 272 1001 247 1051 272 1101 322 1101 347 1051 322 1001"/>
    <polygon class="a" points="247 951 197 951 172 1001 197 1051 247 1051 272 1001 247 951"/>
    <polygon class="a" points="172 901 122 901 97 951 122 1001 172 1001 197 951 172 901"/>
    <polygon class="a" points="97 851 47 851 22 901 47 951 97 951 122 901 97 851"/>
    <polygon class="a" points="22 801 -28 801 -53 851 -28 901 22 901 47 851 22 801"/>
    <polygon class="a" points="547 1051 497 1051 472 1101 497 1151 547 1151 572 1101 547 1051"/>
    <polygon class="a" points="472 1001 422 1001 397 1051 422 1101 472 1101 497 1051 472 1001"/>
    <polygon class="a" points="397 951 347 951 322 1001 347 1051 397 1051 422 1001 397 951"/>
    <polygon class="a" points="322 901 272 901 247 951 272 1001 322 1001 347 951 322 901"/>
    <polygon class="a" points="247 851 197 851 172 901 197 951 247 951 272 901 247 851"/>
    <polygon class="a" points="172 801 122 801 97 851 122 901 172 901 197 851 172 801"/>
    <polygon class="a" points="97 751 47 751 22 801 47 851 97 851 122 801 97 751"/>
    <polygon class="a" points="22 701 -28 701 -53 751 -28 801 22 801 47 751 22 701"/>
    <polygon class="a" points="697 1051 647 1051 622 1101 647 1151 697 1151 722 1101 697 1051"/>
    <polygon class="a" points="622 1001 572 1001 547 1051 572 1101 622 1101 647 1051 622 1001"/>
    <polygon class="a" points="547 951 497 951 472 1001 497 1051 547 1051 572 1001 547 951"/>
    <polygon class="a" points="472 901 422 901 397 951 422 1001 472 1001 497 951 472 901"/>
    <polygon class="a" points="397 851 347 851 322 901 347 951 397 951 422 901 397 851"/>
    <polygon class="a" points="322 801 272 801 247 851 272 901 322 901 347 851 322 801"/>
    <polygon class="a" points="247 751 197 751 172 801 197 851 247 851 272 801 247 751"/>
    <polygon class="a" points="172 701 122 701 97 751 122 801 172 801 197 751 172 701"/>
    <polygon class="a" points="97 651 47 651 22 701 47 751 97 751 122 701 97 651"/>
    <polygon class="a" points="22 601 -28 601 -53 651 -28 701 22 701 47 651 22 601"/>
    <polygon class="a" points="847 1051 797 1051 772 1101 797 1151 847 1151 872 1101 847 1051"/>
    <polygon class="a" points="772 1001 722 1001 697 1051 722 1101 772 1101 797 1051 772 1001"/>
    <polygon class="a" points="697 951 647 951 622 1001 647 1051 697 1051 722 1001 697 951"/>
    <polygon class="a" points="622 901 572 901 547 951 572 1001 622 1001 647 951 622 901"/>
    <polygon class="a" points="547 851 497 851 472 901 497 951 547 951 572 901 547 851"/>
    <polygon class="a" points="472 801 422 801 397 851 422 901 472 901 497 851 472 801"/>
    <polygon class="a" points="397 751 347 751 322 801 347 851 397 851 422 801 397 751"/>
    <polygon class="a" points="322 701 272 701 247 751 272 801 322 801 347 751 322 701"/>
    <polygon class="a" points="247 651 197 651 172 701 197 751 247 751 272 701 247 651"/>
    <polygon class="a" points="172 601 122 601 97 651 122 701 172 701 197 651 172 601"/>
    <polygon class="a" points="97 551 47 551 22 601 47 651 97 651 122 601 97 551"/>
    <polygon class="a" points="22 501 -28 501 -53 551 -28 601 22 601 47 551 22 501"/>
    <polygon class="a" points="997 1051 947 1051 922 1101 947 1151 997 1151 1022 1101 997 1051"/>
    <polygon class="a" points="922 1001 872 1001 847 1051 872 1101 922 1101 947 1051 922 1001"/>
    <polygon class="a" points="847 951 797 951 772 1001 797 1051 847 1051 872 1001 847 951"/>
    <polygon class="a" points="772 901 722 901 697 951 722 1001 772 1001 797 951 772 901"/>
    <polygon class="a" points="697 851 647 851 622 901 647 951 697 951 722 901 697 851"/>
    <polygon class="a" points="622 801 572 801 547 851 572 901 622 901 647 851 622 801"/>
    <polygon class="a" points="547 751 497 751 472 801 497 851 547 851 572 801 547 751"/>
    <polygon class="a" points="472 701 422 701 397 751 422 801 472 801 497 751 472 701"/>
    <polygon class="a" points="397 651 347 651 322 701 347 751 397 751 422 701 397 651"/>
    <polygon class="a" points="322 601 272 601 247 651 272 701 322 701 347 651 322 601"/>
    <polygon class="a" points="247 551 197 551 172 601 197 651 247 651 272 601 247 551"/>
    <polygon class="a" points="172 501 122 501 97 551 122 601 172 601 197 551 172 501"/>
    <polygon class="a" points="97 451 47 451 22 501 47 551 97 551 122 501 97 451"/>
    <polygon class="a" points="22 401 -28 401 -53 451 -28 501 22 501 47 451 22 401"/>
    <polygon class="a" points="997 951 947 951 922 1001 947 1051 997 1051 1022 1001 997 951"/>
    <polygon class="a" points="922 901 872 901 847 951 872 1001 922 1001 947 951 922 901"/>
    <polygon class="a" points="847 851 797 851 772 901 797 951 847 951 872 901 847 851"/>
    <polygon class="a" points="772 801 722 801 697 851 722 901 772 901 797 851 772 801"/>
    <polygon class="a" points="697 751 647 751 622 801 647 851 697 851 722 801 697 751"/>
    <polygon class="a" points="622 701 572 701 547 751 572 801 622 801 647 751 622 701"/>
    <polygon class="a" points="547 651 497 651 472 701 497 751 547 751 572 701 547 651"/>
    <polygon class="a" points="472 601 422 601 397 651 422 701 472 701 497 651 472 601"/>
    <polygon class="a" points="397 551 347 551 322 601 347 651 397 651 422 601 397 551"/>
    <polygon class="a" points="322 501 272 501 247 551 272 601 322 601 347 551 322 501"/>
    <polygon class="a" points="247 451 197 451 172 501 197 551 247 551 272 501 247 451"/>
    <polygon class="a" points="172 401 122 401 97 451 122 501 172 501 197 451 172 401"/>
    <polygon class="a" points="97 351 47 351 22 401 47 451 97 451 122 401 97 351"/>
    <polygon class="a" points="22 301 -28 301 -53 351 -28 401 22 401 47 351 22 301"/>
    <polygon class="a" points="997 851 947 851 922 901 947 951 997 951 1022 901 997 851"/>
    <polygon class="a" points="922 801 872 801 847 851 872 901 922 901 947 851 922 801"/>
    <polygon class="a" points="847 751 797 751 772 801 797 851 847 851 872 801 847 751"/>
    <polygon class="a" points="772 701 722 701 697 751 722 801 772 801 797 751 772 701"/>
    <polygon class="a" points="697 651 647 651 622 701 647 751 697 751 722 701 697 651"/>
    <polygon class="a" points="622 601 572 601 547 651 572 701 622 701 647 651 622 601"/>
    <polygon class="a" points="547 551 497 551 472 601 497 651 547 651 572 601 547 551"/>
    <polygon class="a" points="472 501 422 501 397 551 422 601 472 601 497 551 472 501"/>
    <polygon class="a" points="397 451 347 451 322 501 347 551 397 551 422 501 397 451"/>
    <polygon class="a" points="322 401 272 401 247 451 272 501 322 501 347 451 322 401"/>
    <polygon class="a" points="247 351 197 351 172 401 197 451 247 451 272 401 247 351"/>
    <polygon class="a" points="172 301 122 301 97 351 122 401 172 401 197 351 172 301"/>
    <polygon class="a" points="97 251 47 251 22 301 47 351 97 351 122 301 97 251"/>
    <polygon class="a" points="22 201 -28 201 -53 251 -28 301 22 301 47 251 22 201"/>
    <polygon class="a" points="997 751 947 751 922 801 947 851 997 851 1022 801 997 751"/>
    <polygon class="a" points="922 701 872 701 847 751 872 801 922 801 947 751 922 701"/>
    <polygon class="a" points="847 651 797 651 772 701 797 751 847 751 872 701 847 651"/>
    <polygon class="a" points="772 601 722 601 697 651 722 701 772 701 797 651 772 601"/>
    <polygon class="a" points="697 551 647 551 622 601 647 651 697 651 722 601 697 551"/>
    <polygon class="a" points="622 501 572 501 547 551 572 601 622 601 647 551 622 501"/>
    <polygon class="a" points="547 451 497 451 472 501 497 551 547 551 572 501 547 451"/>
    <polygon class="a" points="472 401 422 401 397 451 422 501 472 501 497 451 472 401"/>
    <polygon class="a" points="397 351 347 351 322 401 347 451 397 451 422 401 397 351"/>
    <polygon class="a" points="322 301 272 301 247 351 272 401 322 401 347 351 322 301"/>
    <polygon class="a" points="247 251 197 251 172 301 197 351 247 351 272 301 247 251"/>
    <polygon class="a" points="172 201 122 201 97 251 122 301 172 301 197 251 172 201"/>
    <polygon class="a" points="97 151 47 151 22 201 47 251 97 251 122 201 97 151"/>
    <polygon class="a" points="22 101 -28 101 -53 151 -28 201 22 201 47 151 22 101"/>
    <polygon class="a" points="997 651 947 651 922 701 947 751 997 751 1022 701 997 651"/>
    <polygon class="a" points="922 601 872 601 847 651 872 701 922 701 947 651 922 601"/>
    <polygon class="a" points="847 551 797 551 772 601 797 651 847 651 872 601 847 551"/>
    <polygon class="a" points="772 501 722 501 697 551 722 601 772 601 797 551 772 501"/>
    <polygon class="a" points="697 451 647 451 622 501 647 551 697 551 722 501 697 451"/>
    <polygon class="a" points="622 401 572 401 547 451 572 501 622 501 647 451 622 401"/>
    <polygon class="a" points="547 351 497 351 472 401 497 451 547 451 572 401 547 351"/>
    <polygon class="a" points="472 301 422 301 397 351 422 401 472 401 497 351 472 301"/>
    <polygon class="a" points="397 251 347 251 322 301 347 351 397 351 422 301 397 251"/>
    <polygon class="a" points="322 201 272 201 247 251 272 301 322 301 347 251 322 201"/>
    <polygon class="a" points="247 151 197 151 172 201 197 251 247 251 272 201 247 151"/>
    <polygon class="a" points="172 101 122 101 97 151 122 201 172 201 197 151 172 101"/>
    <polygon class="a" points="97 51 47 51 22 101 47 151 97 151 122 101 97 51"/>
    <polygon class="a" points="22 1 -28 1 -53 51 -28 101 22 101 47 51 22 1"/>
    <polygon class="a" points="997 551 947 551 922 601 947 651 997 651 1022 601 997 551"/>
    <polygon class="a" points="922 501 872 501 847 551 872 601 922 601 947 551 922 501"/>
    <polygon class="a" points="847 451 797 451 772 501 797 551 847 551 872 501 847 451"/>
    <polygon class="a" points="772 401 722 401 697 451 722 501 772 501 797 451 772 401"/>
    <polygon class="a" points="697 351 647 351 622 401 647 451 697 451 722 401 697 351"/>
    <polygon class="a" points="622 301 572 301 547 351 572 401 622 401 647 351 622 301"/>
    <polygon class="a" points="547 251 497 251 472 301 497 351 547 351 572 301 547 251"/>
    <polygon class="a" points="472 201 422 201 397 251 422 301 472 301 497 251 472 201"/>
    <polygon class="a" points="397 151 347 151 322 201 347 251 397 251 422 201 397 151"/>
    <polygon class="a" points="322 101 272 101 247 151 272 201 322 201 347 151 322 101"/>
    <polygon class="a" points="247 51 197 51 172 101 197 151 247 151 272 101 247 51"/>
    <polygon class="a" points="172 1 122 1 97 51 122 101 172 101 197 51 172 1"/>
    <polygon class="a" points="97 -49 47 -49 22 1 47 51 97 51 122 1 97 -49"/>
    <polygon class="a" points="997 451 947 451 922 501 947 551 997 551 1022 501 997 451"/>
    <polygon class="a" points="922 401 872 401 847 451 872 501 922 501 947 451 922 401"/>
    <polygon class="a" points="847 351 797 351 772 401 797 451 847 451 872 401 847 351"/>
    <polygon class="a" points="772 301 722 301 697 351 722 401 772 401 797 351 772 301"/>
    <polygon class="a" points="697 251 647 251 622 301 647 351 697 351 722 301 697 251"/>
    <polygon class="a" points="622 201 572 201 547 251 572 301 622 301 647 251 622 201"/>
    <polygon class="a" points="547 151 497 151 472 201 497 251 547 251 572 201 547 151"/>
    <polygon class="a" points="472 101 422 101 397 151 422 201 472 201 497 151 472 101"/>
    <polygon class="a" points="397 51 347 51 322 101 347 151 397 151 422 101 397 51"/>
    <polygon class="a" points="322 1 272 1 247 51 272 101 322 101 347 51 322 1"/>
    <polygon class="a" points="247 -49 197 -49 172 1 197 51 247 51 272 1 247 -49"/>
    <polygon class="a" points="997 351 947 351 922 401 947 451 997 451 1022 401 997 351"/>
    <polygon class="a" points="922 301 872 301 847 351 872 401 922 401 947 351 922 301"/>
    <polygon class="a" points="847 251 797 251 772 301 797 351 847 351 872 301 847 251"/>
    <polygon class="a" points="772 201 722 201 697 251 722 301 772 301 797 251 772 201"/>
    <polygon class="a" points="697 151 647 151 622 201 647 251 697 251 722 201 697 151"/>
    <polygon class="a" points="622 101 572 101 547 151 572 201 622 201 647 151 622 101"/>
    <polygon class="a" points="547 51 497 51 472 101 497 151 547 151 572 101 547 51"/>
    <polygon class="a" points="472 1 422 1 397 51 422 101 472 101 497 51 472 1"/>
    <polygon class="a" points="397 -49 347 -49 322 1 347 51 397 51 422 1 397 -49"/>
    <polygon class="a" points="997 251 947 251 922 301 947 351 997 351 1022 301 997 251"/>
    <polygon class="a" points="922 201 872 201 847 251 872 301 922 301 947 251 922 201"/>
    <polygon class="a" points="847 151 797 151 772 201 797 251 847 251 872 201 847 151"/>
    <polygon class="a" points="772 101 722 101 697 151 722 201 772 201 797 151 772 101"/>
    <polygon class="a" points="697 51 647 51 622 101 647 151 697 151 722 101 697 51"/>
    <polygon class="a" points="622 1 572 1 547 51 572 101 622 101 647 51 622 1"/>
    <polygon class="a" points="547 -49 497 -49 472 1 497 51 547 51 572 1 547 -49"/>
    <polygon class="a" points="997 151 947 151 922 201 947 251 997 251 1022 201 997 151"/>
    <polygon class="a" points="922 101 872 101 847 151 872 201 922 201 947 151 922 101"/>
    <polygon class="a" points="847 51 797 51 772 101 797 151 847 151 872 101 847 51"/>
    <polygon class="a" points="772 1 722 1 697 51 722 101 772 101 797 51 772 1"/>
    <polygon class="a" points="697 -49 647 -49 622 1 647 51 697 51 722 1 697 -49"/>
    <polygon class="a" points="997 51 947 51 922 101 947 151 997 151 1022 101 997 51"/>
    <polygon class="a" points="922 1 872 1 847 51 872 101 922 101 947 51 922 1"/>
    <polygon class="a" points="847 -49 797 -49 772 1 797 51 847 51 872 1 847 -49"/>
    <polygon class="a" points="997 -49 947 -49 922 1 947 51 997 51 1022 1 997 -49"/>
  </g>
</svg>
